# xmcd
#
# Track frame offsets:
#	150
#	12705
#	22321
#	40331
#	54192
#	77014
#	96550
#	117412
#	142026
#	160382
#	172041
#	189340
#	210795
#	227917
#	242753
#	261226
#	279456
#
# Disc length: 3908 seconds
#
# Revision: 1
# Processed by: cddbd v1.5.1PL0 Copyright (c) Steve Scherf et al.
# Submitted via: CDex 1.50Beta5
#
DISCID=f50f4211
DTITLE=宮城チドリ - なんくる沖縄
DYEAR=2002
DGENRE=
TTITLE0=宮城チドリ/てんさぐの花
TTITLE1=徳田七子/稲しり節
TTITLE2=亀谷朝仁/キザミ節
TTITLE3=玉城安定/デンスナー節
TTITLE4=盛和子/夫婦節
TTITLE5=糸満ヤカラーズ/でんさ節
TTITLE6=知名定男/物知り節
TTITLE7=饒辺愛子/なんた浜
TTITLE8=嘉手刈林昌/県道節
TTITLE9=糸満ヤカラーズ/海ヤカラ
TTITLE10=我如古より子/女工節
TTITLE11=津波実武/伊佐ヘイヨー
TTITLE12=玉城邦夫/ハリクヤマク
TTITLE13=喜納昌永グループ/赤田首里殿内
TTITLE14=喜納昌永/三村踊り
TTITLE15=佐久原次郎/ハンタ原
TTITLE16=徳原盛文/嘉手久
EXTD=
EXTT0=
EXTT1=
EXTT2=
EXTT3=
EXTT4=
EXTT5=
EXTT6=
EXTT7=
EXTT8=
EXTT9=
EXTT10=
EXTT11=
EXTT12=
EXTT13=
EXTT14=
EXTT15=
EXTT16=
PLAYORDER=
